<?xml version="1.0" standalone="no"?>
<!DOCTYPE svg PUBLIC "-//W3C//DTD SVG 20010904//EN"
 "http://www.w3.org/TR/2001/REC-SVG-20010904/DTD/svg10.dtd">
<svg version="1.0" xmlns="http://www.w3.org/2000/svg"
 width="512.000000pt" height="512.000000pt" viewBox="0 0 512.000000 512.000000"
 preserveAspectRatio="xMidYMid meet">
<metadata>
Created by potrace 1.16, written by Peter Selinger 2001-2019
</metadata>
<g transform="translate(0.000000,512.000000) scale(0.100000,-0.100000)"
fill="#000000" stroke="none">
<path d="M2310 5100 c-1176 -122 -2103 -1008 -2277 -2177 -24 -165 -24 -561 0
-726 153 -1030 902 -1861 1902 -2110 235 -58 348 -71 625 -71 277 0 390 13
625 71 817 204 1480 802 1773 1598 50 137 104 352 128 510 26 169 26 561 0
730 -172 1128 -1033 1991 -2156 2160 -124 19 -496 28 -620 15z"/>
</g>
</svg>
